<svg width="69" height="21" viewBox="0 0 69 21" fill="none" xmlns="http://www.w3.org/2000/svg">
<path d="M6.576 10.7359C6.576 10.9039 6.2 10.9879 5.448 10.9879C4.696 10.9879 4.288 10.9279 4.224 10.8079L2.22 7.06394V10.7959C2.22 10.9399 1.848 11.0119 1.104 11.0119C0.368 11.0119 0 10.9399 0 10.7959V2.76794C0 2.64794 0.316 2.58794 0.948 2.58794C1.196 2.58794 1.484 2.61194 1.812 2.65994C2.148 2.69994 2.352 2.77994 2.424 2.89994L4.344 6.59594V2.82794C4.344 2.67594 4.716 2.59994 5.46 2.59994C6.204 2.59994 6.576 2.67594 6.576 2.82794V10.7359Z" fill="white"/>
<path d="M12.2572 10.6759C11.7532 10.9719 11.1053 11.1199 10.3133 11.1199C9.52125 11.1199 8.85325 10.8519 8.30925 10.3159C7.76525 9.77194 7.49325 9.02394 7.49325 8.07194C7.49325 7.11194 7.75325 6.33994 8.27325 5.75594C8.80125 5.17194 9.46525 4.87994 10.2653 4.87994C11.0653 4.87994 11.6812 5.08394 12.1132 5.49194C12.5532 5.89994 12.7733 6.39594 12.7733 6.97994C12.7733 8.27594 12.0293 8.92394 10.5413 8.92394H9.71325C9.71325 9.16394 9.77725 9.33194 9.90525 9.42794C10.0413 9.51594 10.2372 9.55994 10.4932 9.55994C11.0532 9.55994 11.5853 9.43194 12.0893 9.17594C12.0973 9.16794 12.1333 9.22394 12.1973 9.34394C12.3893 9.68794 12.4853 9.97994 12.4853 10.2199C12.4853 10.4519 12.4093 10.6039 12.2572 10.6759ZM10.7572 7.20794C10.7572 6.87194 10.5933 6.70394 10.2653 6.70394C10.1133 6.70394 9.98125 6.75194 9.86925 6.84794C9.76525 6.93594 9.71325 7.06794 9.71325 7.24394V7.61594H10.3612C10.6252 7.61594 10.7572 7.47994 10.7572 7.20794Z" fill="white"/>
<path d="M15.7532 10.9279C15.7532 10.9919 15.3852 11.0239 14.6492 11.0239C13.9212 11.0239 13.5572 10.9959 13.5572 10.9399V5.04794C13.5572 4.99194 13.9212 4.96394 14.6492 4.96394C15.3852 4.96394 15.7532 4.98794 15.7532 5.03594V10.9279Z" fill="white"/>
<path d="M19.0464 10.9999C18.2704 10.9999 17.6704 10.7519 17.2464 10.2559C16.8224 9.75194 16.6104 9.01194 16.6104 8.03594C16.6104 7.05194 16.8864 6.28394 17.4384 5.73194C17.9984 5.17194 18.7384 4.89194 19.6584 4.89194C20.5864 4.89194 21.3504 5.09594 21.9504 5.50394V11.4799C21.9504 12.0719 21.7104 12.5239 21.2304 12.8359C20.7504 13.1559 20.1344 13.3159 19.3824 13.3159C18.6304 13.3159 17.9584 13.2199 17.3664 13.0279C17.2864 12.8359 17.2464 12.6639 17.2464 12.5119C17.2464 11.9999 17.3304 11.6239 17.4984 11.3839C18.0344 11.6159 18.6064 11.7319 19.2144 11.7319C19.6544 11.7319 19.8744 11.5759 19.8744 11.2639V10.9039C19.5304 10.9679 19.2544 10.9999 19.0464 10.9999ZM19.5984 6.84794C19.0624 6.84794 18.7944 7.25194 18.7944 8.05994C18.7944 8.56394 18.8984 8.89194 19.1064 9.04394C19.2424 9.14794 19.3784 9.19994 19.5144 9.19994C19.6504 9.19994 19.7704 9.18794 19.8744 9.16394V6.88394C19.7784 6.85994 19.6864 6.84794 19.5984 6.84794Z" fill="white"/>
<path d="M23.0859 2.63594C23.0859 2.53994 23.4299 2.49194 24.1179 2.49194C24.8139 2.49194 25.1619 2.54394 25.1619 2.64794V4.97594C25.5059 4.91194 25.7499 4.87994 25.8939 4.87994C27.5739 4.87994 28.4139 5.84394 28.4139 7.77194C28.4139 8.84394 28.1539 9.67194 27.6339 10.2559C27.1219 10.8319 26.3899 11.1199 25.4379 11.1199C24.4939 11.1199 23.7099 10.9079 23.0859 10.4839V2.63594ZM25.5579 6.75194C25.4219 6.75194 25.2899 6.79594 25.1619 6.88394V9.17594C25.2739 9.22394 25.3899 9.24794 25.5099 9.24794C25.6379 9.24794 25.7659 9.19994 25.8939 9.10394C26.1179 8.94394 26.2299 8.57194 26.2299 7.98794C26.2299 7.16394 26.0059 6.75194 25.5579 6.75194Z" fill="white"/>
<path d="M29.7763 10.2919C29.2803 9.73994 29.0323 8.97594 29.0323 7.99994C29.0323 7.02394 29.2803 6.25994 29.7763 5.70794C30.2803 5.15594 30.9563 4.87994 31.8043 4.87994C32.6523 4.87994 33.3243 5.15594 33.8203 5.70794C34.3163 6.25994 34.5643 7.02394 34.5643 7.99994C34.5643 8.97594 34.3163 9.73994 33.8203 10.2919C33.3243 10.8439 32.6523 11.1199 31.8043 11.1199C30.9563 11.1199 30.2803 10.8439 29.7763 10.2919ZM31.8043 6.88394C31.3563 6.88394 31.1323 7.25194 31.1323 7.98794C31.1323 8.72394 31.3563 9.09194 31.8043 9.09194C32.2603 9.09194 32.4883 8.72394 32.4883 7.98794C32.4883 7.25194 32.2603 6.88394 31.8043 6.88394Z" fill="white"/>
<path d="M35.3527 5.07194C35.3527 4.98394 35.6967 4.93994 36.3847 4.93994C37.0727 4.93994 37.4167 4.98394 37.4167 5.07194V8.57594C37.4167 8.97594 37.5447 9.17594 37.8007 9.17594C37.9927 9.17594 38.2087 9.09194 38.4487 8.92394V5.07194C38.4487 4.99194 38.7887 4.95194 39.4687 4.95194C40.1487 4.95194 40.4887 4.99194 40.4887 5.07194V9.00794H40.8007C41.0727 9.00794 41.2087 9.26794 41.2087 9.78794C41.2087 10.0519 41.1527 10.3199 41.0407 10.5919C40.8807 10.9439 40.6647 11.1199 40.3927 11.1199C39.8567 11.1199 39.4607 10.8999 39.2047 10.4599L39.1927 10.4719C38.7047 10.9039 38.1807 11.1199 37.6207 11.1199C36.8447 11.1199 36.2727 10.9279 35.9047 10.5439C35.5367 10.1519 35.3527 9.50794 35.3527 8.61194V5.07194Z" fill="white"/>
<path d="M44.568 10.9879C44.568 11.0439 44.204 11.0719 43.476 11.0719C42.748 11.0559 42.384 11.0239 42.384 10.9759V6.99194H42.06C41.932 6.99194 41.828 6.91594 41.748 6.76394C41.676 6.60394 41.64 6.40794 41.64 6.17594C41.64 5.31194 41.896 4.87994 42.408 4.87994C42.768 4.87994 43.068 4.99194 43.308 5.21594C43.548 5.43194 43.668 5.67994 43.668 5.95994C43.836 5.63194 44.06 5.37194 44.34 5.17994C44.628 4.97994 44.92 4.87994 45.216 4.87994C45.68 4.87994 45.96 4.99994 46.056 5.23994C46.08 5.30394 46.092 5.39994 46.092 5.52794C46.092 5.64794 46.052 5.86794 45.972 6.18794C45.9 6.50794 45.824 6.73994 45.744 6.88394C45.664 7.02794 45.616 7.09994 45.6 7.09994C45.584 7.09994 45.508 7.07194 45.372 7.01594C45.244 6.95194 45.128 6.91994 45.024 6.91994C44.72 6.91994 44.568 7.15994 44.568 7.63994V10.9879Z" fill="white"/>
<path d="M46.9498 8.83994C47.5978 9.23194 48.1098 9.42794 48.4858 9.42794C48.7258 9.42794 48.8458 9.34394 48.8458 9.17594C48.8458 9.05594 48.6378 8.89994 48.2218 8.70794C47.2218 8.29994 46.7218 7.63194 46.7218 6.70394C46.7218 6.11194 46.9378 5.65994 47.3698 5.34794C47.8018 5.03594 48.3178 4.87994 48.9178 4.87994C49.5258 4.87994 50.0378 4.94394 50.4538 5.07194C50.8778 5.19994 51.0898 5.36794 51.0898 5.57594C51.0898 5.75194 51.0018 5.98394 50.8258 6.27194C50.6578 6.55994 50.5418 6.71594 50.4778 6.73994C50.1338 6.54794 49.7618 6.45194 49.3618 6.45194C49.1458 6.45194 49.0378 6.52794 49.0378 6.67994C49.0378 6.77594 49.0778 6.85994 49.1578 6.93194C49.2458 6.99594 49.4018 7.07994 49.6258 7.18394C49.8498 7.27994 50.0338 7.36794 50.1778 7.44794C50.3298 7.52794 50.4978 7.63994 50.6818 7.78394C51.0658 8.08794 51.2578 8.48394 51.2578 8.97194C51.2578 9.61194 51.0458 10.1319 50.6218 10.5319C50.1978 10.9239 49.5578 11.1199 48.7018 11.1199C48.1338 11.1199 47.6178 11.0239 47.1538 10.8319C46.6898 10.6399 46.4578 10.3759 46.4578 10.0399C46.4578 9.81594 46.5098 9.57994 46.6138 9.33194C46.7258 9.08394 46.8378 8.91994 46.9498 8.83994Z" fill="white"/>
<path d="M51.7344 17.96C52.3824 18.352 52.8944 18.548 53.2704 18.548C53.5104 18.548 53.6304 18.464 53.6304 18.296C53.6304 18.176 53.4224 18.02 53.0064 17.828C52.0064 17.42 51.5064 16.752 51.5064 15.824C51.5064 15.232 51.7224 14.78 52.1544 14.468C52.5864 14.156 53.1024 14 53.7024 14C54.3104 14 54.8224 14.064 55.2384 14.192C55.6624 14.32 55.8744 14.488 55.8744 14.696C55.8744 14.872 55.7864 15.104 55.6104 15.392C55.4424 15.68 55.3264 15.836 55.2624 15.86C54.9184 15.668 54.5464 15.572 54.1464 15.572C53.9304 15.572 53.8224 15.648 53.8224 15.8C53.8224 15.896 53.8624 15.98 53.9424 16.052C54.0304 16.116 54.1864 16.2 54.4104 16.304C54.6344 16.4 54.8184 16.488 54.9624 16.568C55.1144 16.648 55.2824 16.76 55.4664 16.904C55.8504 17.208 56.0424 17.604 56.0424 18.092C56.0424 18.732 55.8304 19.252 55.4064 19.652C54.9824 20.044 54.3424 20.24 53.4864 20.24C52.9184 20.24 52.4024 20.144 51.9384 19.952C51.4744 19.76 51.2424 19.496 51.2424 19.16C51.2424 18.936 51.2944 18.7 51.3984 18.452C51.5104 18.204 51.6224 18.04 51.7344 17.96Z" fill="white"/>
<path d="M50.1825 19.796C49.6785 20.092 49.0305 20.24 48.2385 20.24C47.4465 20.24 46.7785 19.972 46.2345 19.436C45.6905 18.892 45.4185 18.144 45.4185 17.192C45.4185 16.232 45.6785 15.46 46.1985 14.876C46.7265 14.292 47.3905 14 48.1905 14C48.9905 14 49.6065 14.204 50.0385 14.612C50.4785 15.02 50.6985 15.516 50.6985 16.1C50.6985 17.396 49.9545 18.044 48.4665 18.044H47.6385C47.6385 18.284 47.7025 18.452 47.8305 18.548C47.9665 18.636 48.1625 18.68 48.4185 18.68C48.9785 18.68 49.5105 18.552 50.0145 18.296C50.0225 18.288 50.0585 18.344 50.1225 18.464C50.3145 18.808 50.4105 19.1 50.4105 19.34C50.4105 19.572 50.3345 19.724 50.1825 19.796ZM48.6825 16.328C48.6825 15.992 48.5185 15.824 48.1905 15.824C48.0385 15.824 47.9065 15.872 47.7945 15.968C47.6905 16.056 47.6385 16.188 47.6385 16.364V16.736H48.2865C48.5505 16.736 48.6825 16.6 48.6825 16.328Z" fill="white"/>
<path d="M42.5285 17.144C42.5285 17.928 42.8245 18.32 43.4165 18.32C43.8005 18.32 44.1205 18.244 44.3765 18.092C44.4965 18.092 44.5925 18.3 44.6645 18.716C44.7445 19.124 44.7845 19.404 44.7845 19.556C44.7845 19.7 44.7645 19.796 44.7245 19.844C44.3005 20.108 43.7205 20.24 42.9845 20.24C42.2485 20.24 41.6205 19.968 41.1005 19.424C40.5885 18.872 40.3325 18.124 40.3325 17.18C40.3325 16.228 40.5845 15.46 41.0885 14.876C41.6005 14.292 42.2765 14 43.1165 14C43.9645 14 44.5525 14.204 44.8805 14.612C44.9525 14.7 44.9885 14.832 44.9885 15.008C44.9885 15.176 44.9565 15.384 44.8925 15.632C44.7485 16.144 44.5605 16.44 44.3285 16.52C44.2965 16.528 44.2485 16.532 44.1845 16.532C44.1285 16.532 44.0565 16.484 43.9685 16.388C43.6565 16.076 43.4045 15.92 43.2125 15.92C43.0285 15.92 42.8685 16.016 42.7325 16.208C42.5965 16.4 42.5285 16.712 42.5285 17.144Z" fill="white"/>
<path d="M39.4753 20.048C39.4753 20.112 39.1073 20.144 38.3713 20.144C37.6433 20.144 37.2793 20.116 37.2793 20.06V14.168C37.2793 14.112 37.6433 14.084 38.3713 14.084C39.1073 14.084 39.4753 14.108 39.4753 14.156V20.048Z" fill="white"/>
<path d="M31.6429 19.412C31.1469 18.86 30.8989 18.096 30.8989 17.12C30.8989 16.144 31.1469 15.38 31.6429 14.828C32.1469 14.276 32.8229 14 33.6709 14C34.5189 14 35.1909 14.276 35.6869 14.828C36.1829 15.38 36.4309 16.144 36.4309 17.12C36.4309 18.096 36.1829 18.86 35.6869 19.412C35.1909 19.964 34.5189 20.24 33.6709 20.24C32.8229 20.24 32.1469 19.964 31.6429 19.412ZM33.6709 16.004C33.2229 16.004 32.9989 16.372 32.9989 17.108C32.9989 17.844 33.2229 18.212 33.6709 18.212C34.1269 18.212 34.3549 17.844 34.3549 17.108C34.3549 16.372 34.1269 16.004 33.6709 16.004Z" fill="white"/>
<path d="M24.4011 14.156C24.3771 14.092 24.7491 14.06 25.5171 14.06C26.2931 14.06 26.6811 14.08 26.6811 14.12L27.5451 18.2L28.1931 14.18C28.2171 14.108 28.6131 14.072 29.3811 14.072C30.1571 14.072 30.5331 14.104 30.5091 14.168L28.8171 20.036C28.7611 20.116 28.2851 20.156 27.3891 20.156C26.4931 20.156 26.0131 20.096 25.9491 19.976L24.4011 14.156Z" fill="white"/>
<path d="M67.0592 13.083V7.66602C67.0592 7.53279 67.0303 7.40114 66.9742 7.28027C66.9181 7.15932 66.8359 7.05189 66.734 6.96582L66.7301 6.96191L60.901 1.96582C60.7356 1.82599 60.5258 1.75 60.3092 1.75C60.0926 1.75 59.8829 1.82696 59.7174 1.9668L59.7164 1.96582L53.8883 6.96191C53.5738 7.23145 53.1002 7.19536 52.8307 6.88086C52.5612 6.56636 52.5973 6.09279 52.9117 5.82324L58.7457 0.824219L58.7496 0.821289C59.1858 0.452663 59.7381 0.25 60.3092 0.25C60.8803 0.250003 61.4326 0.452658 61.8688 0.821289L61.8727 0.824219L67.7067 5.82324C67.9735 6.04962 68.1873 6.331 68.3346 6.64844C68.4825 6.9672 68.5592 7.31461 68.5592 7.66602V13.083C68.5591 13.7239 68.3043 14.3388 67.8512 14.792C67.398 15.245 66.783 15.499 66.1422 15.499L63.0641 15.5L62.7213 18.583C62.6875 18.8863 62.473 19.1388 62.1793 19.2217C61.8857 19.3045 61.5708 19.2017 61.3834 18.9609L58.691 15.499H57.8092L57.7321 15.4951C57.3539 15.4565 57.059 15.1373 57.0592 14.749C57.0594 14.3349 57.3952 13.999 57.8092 13.999L59.0592 14C59.2904 14.0001 59.509 14.1067 59.651 14.2891L61.4342 16.5811L61.6471 14.667C61.6894 14.2874 62.0102 14.0002 62.3922 14L66.1422 13.999C66.3853 13.999 66.6187 13.9024 66.7906 13.7305C66.9624 13.5586 67.0591 13.3259 67.0592 13.083Z" fill="white"/>
<path d="M62.9291 7.44821C62.6416 7.1612 62.252 7 61.8458 7C61.4396 7 61.0499 7.1612 60.7625 7.44821L60.5958 7.69821L60.3458 7.44821C60.1926 7.31689 60.015 7.21703 59.8232 7.15433C59.6314 7.09164 59.4291 7.06733 59.2279 7.08281C59.0267 7.09828 58.8306 7.15324 58.6506 7.24453C58.4707 7.33582 58.3105 7.46166 58.1791 7.61487C58.0478 7.76808 57.9479 7.94566 57.8853 8.13746C57.8226 8.32926 57.7983 8.53153 57.8137 8.73272C57.8292 8.93392 57.8842 9.13009 57.9755 9.31005C58.0667 9.49001 58.1926 9.65022 58.3458 9.78154L60.5958 12.0315L62.8458 9.78154C63.5958 9.03154 63.5125 8.03154 62.9291 7.44821Z" fill="#FC3E3E"/>
</svg>
