<svg width="17" height="20" viewBox="0 0 17 20" fill="none" xmlns="http://www.w3.org/2000/svg">
<path d="M14.6592 13.083V7.66602C14.6592 7.53279 14.6303 7.40114 14.5742 7.28027C14.5181 7.15932 14.4358 7.05189 14.334 6.96582L14.3301 6.96191L8.50099 1.96582C8.33554 1.82599 8.12581 1.75 7.90919 1.75C7.69256 1.75 7.48284 1.82696 7.31739 1.9668L7.31641 1.96582L1.48829 6.96191C1.17378 7.23145 0.700216 7.19536 0.430672 6.88086C0.161145 6.56636 0.197256 6.09279 0.511727 5.82324L6.34571 0.824219L6.34962 0.821289C6.7858 0.452663 7.3381 0.25 7.90919 0.25C8.48028 0.250003 9.03258 0.452658 9.46876 0.821289L9.47266 0.824219L15.3066 5.82324C15.5735 6.04962 15.7872 6.331 15.9346 6.64844C16.0825 6.9672 16.1592 7.31461 16.1592 7.66602V13.083C16.1591 13.7239 15.9043 14.3388 15.4512 14.792C14.998 15.245 14.383 15.499 13.7422 15.499L10.6641 15.5L10.3213 18.583C10.2875 18.8863 10.073 19.1388 9.77931 19.2217C9.48569 19.3045 9.17074 19.2017 8.98341 18.9609L6.29102 15.499H5.40919L5.33204 15.4951C4.95393 15.4565 4.659 15.1373 4.65919 14.749C4.6594 14.3349 4.99514 13.999 5.40919 13.999L6.65919 14C6.89034 14.0001 7.10896 14.1067 7.25098 14.2891L9.03419 16.5811L9.24708 14.667C9.28935 14.2874 9.61022 14.0002 9.9922 14L13.7422 13.999C13.9853 13.999 14.2187 13.9024 14.3906 13.7305C14.5624 13.5586 14.6591 13.3259 14.6592 13.083Z" fill="white"/>
<path d="M10.5291 7.44821C10.2416 7.1612 9.85201 7 9.44579 7C9.03956 7 8.64994 7.1612 8.36245 7.44821L8.19579 7.69821L7.94579 7.44821C7.79258 7.31689 7.615 7.21703 7.4232 7.15433C7.2314 7.09164 7.02913 7.06733 6.82793 7.08281C6.62674 7.09828 6.43057 7.15324 6.25061 7.24453C6.07065 7.33582 5.91044 7.46166 5.77912 7.61487C5.6478 7.76808 5.54794 7.94566 5.48524 8.13746C5.42255 8.32926 5.39824 8.53153 5.41372 8.73272C5.4292 8.93392 5.48415 9.13009 5.57544 9.31005C5.66673 9.49001 5.79258 9.65022 5.94579 9.78154L8.19579 12.0315L10.4458 9.78154C11.1958 9.03154 11.1125 8.03154 10.5291 7.44821Z" fill="#FC3E3E"/>
</svg>
